<?xml version="1.0" encoding="utf-8"?>
<!-- Generator: Adobe Illustrator 25.2.3, SVG Export Plug-In . SVG Version: 6.00 Build 0)  -->
<svg version="1.1" id="Layer_1" xmlns="http://www.w3.org/2000/svg" xmlns:xlink="http://www.w3.org/1999/xlink" x="0px" y="0px"
	 viewBox="0 0 616.25 271.81" style="enable-background:new 0 0 616.25 271.81;" xml:space="preserve">
<style type="text/css">
	.st0{fill:#313965;}
	.st1{fill:#EE6923;}
</style>
<g>
	<path class="st0" d="M143.44,158.74h-1.78c-4.57,0-8.06,0.71-11.71,2.15c-3.66,1.43-6.77,3.46-9.33,6.09
		c-2.56,2.63-4.52,5.81-5.9,9.55c-1.37,3.74-2.06,7.91-2.06,12.52v5.81c0,9.78,2.88,17.16,8.64,22.14
		c5.76,4.98,13.13,7.47,23.37,7.47h20.3l-2.6-7.06H144.6c-2.73,0-5.24-0.51-7.52-1.53c-2.28-1.02-4.26-2.41-5.94-4.16
		c-1.69-1.76-2.98-3.84-3.89-6.24c-0.91-2.41-1.37-5-1.37-7.77v-8.6c0-7.03,1.25-12.72,3.76-17.07c2.5-4.35,6.53-6.52,12.09-6.52
		h1.77c5.74,0,9.81,1.87,12.22,5.61c2.42,3.74,3.62,9.34,3.62,16.82h-23.04l-2.33,7.47h36.34c0.18-1.11,0.32-2.28,0.41-3.53
		c0.09-1.25,0.14-2.65,0.14-4.22C170.86,168.38,161.72,158.74,143.44,158.74z M213.56,158.66h-2.88c-9.43,0-16.17,2.6-21.75,7.78
		c-5.58,5.19-8.37,12.61-8.37,22.26v5.73c0,4.64,0.73,8.83,2.2,12.56c1.46,3.73,3.52,6.9,6.18,9.49c2.65,2.59,5.9,4.57,9.75,5.94
		c3.84,1.36,7.33,2.05,12,2.05h2.88c4.76,0,8.24-0.68,12.09-2.05c3.84-1.37,7.09-3.35,9.75-5.94c2.65-2.59,4.71-5.76,6.18-9.49
		c1.46-3.73,2.2-7.92,2.2-12.56v-5.73c0-9.65-2.75-17.07-8.24-22.26C230.04,161.26,223.26,158.66,213.56,158.66z M231.27,194.42
		c0,6.88-1.49,12.45-4.46,16.71c-2.97,4.26-7.39,6.38-13.25,6.38h-2.88c-5.86,0-10.25-2.15-13.18-6.45
		c-2.93-4.3-4.39-9.85-4.39-16.64v-5.71c0-7.06,1.49-12.68,4.46-16.84c2.97-4.16,7.34-6.25,13.11-6.25h2.88
		c5.77,0,10.16,2.06,13.18,6.18c3.02,4.12,4.53,9.76,4.53,16.91V194.42z M341.59,159.64c-1.1,0.69-2.16,2.19-3.16,4.5l-15.41,45.95
		l-14.17-51.2h-5.64c-3.49,0-5.87,1.89-7.16,5.67l-14.31,44.84l-15-45.25c-1.01-2.21-2.11-3.69-3.3-4.43
		c-1.19-0.74-3.03-1.11-5.5-1.11h-8.53l24.9,64.21c0.64,1.38,2.7,2.07,6.19,2.07c3.48,0,5.5-0.69,6.05-2.07l14.86-46.5l14.17,46.5
		c0.37,1.38,2.38,2.07,6.05,2.07c3.48,0,5.59-0.69,6.33-2.07l24.08-64.21h-5.23C344.44,158.6,342.69,158.94,341.59,159.64z
		 M379.38,158.88h-16.01l2.23,7.09h13.78c11.51,0,17.78,6.49,18.8,19.47h-15.46c-9.84,0-17.01,1.58-21.51,4.73
		c-4.5,3.15-6.75,8.21-6.75,15.16c0,12.61,8.96,18.91,26.87,18.91h10.72l-2.51-7.09H383c-5.57,0-9.59-0.84-12.04-2.51
		c-2.46-1.68-3.69-4.76-3.69-9.23c0-4.66,1.21-7.97,3.62-9.93c2.41-1.96,6.87-2.94,13.37-2.94h14.2v22.95
		c0,5.84,2.97,8.76,8.91,8.76h4.32v-37.13C411.68,168.29,400.91,158.88,379.38,158.88z M472.73,159.08h-4.12V217
		c0,0-16.43,1.16-24.47-5.45c-8.04-6.61-7.91-21.92-7.91-21.92v-21.98c0-5.71-3.06-8.57-9.19-8.57h-3.98v34.61
		c0,0-0.86,18.19,14,25.61c12.84,6.42,31.69,4.72,31.69,4.72c-0.09,5.15-0.51,9.42-1.25,12.82c-0.74,3.4-1.99,6.14-3.75,8.21
		c-1.76,2.07-4.07,3.54-6.94,4.41c-2.87,0.87-6.43,1.31-10.68,1.31h-1.94l-2.64,7.03h3.59c7.01,0,12.86-0.6,17.56-1.79
		c4.7-1.19,8.43-3.22,11.2-6.07c2.77-2.85,4.73-6.57,5.88-11.17c1.15-4.6,1.73-10.3,1.73-17.1v-54.05
		C481.5,161.94,478.57,159.08,472.73,159.08z M93.87,119.47H89.7v79.95l-52.73-74.85c-2.47-3.4-5.77-5.1-9.9-5.1h-6.34v94.95
		c0,6.39,2.68,9.59,8.04,9.59h3.87v-79.33l53.2,73.61c2.78,3.82,6.29,5.72,10.51,5.72h5.26v-94.95
		C101.61,122.66,99.03,119.47,93.87,119.47z"/>
	<g>
		<path class="st1" d="M534.97,147.61c-0.48-0.24-0.96-0.49-1.44-0.74c22.66,0.46,44.79-7.9,61.99-23.13
			c-20.04,15.22-45.14,21.71-69.99,18.32c-16.84-11.51-30.62-29.98-38.62-52.5c-8.73-23.19-10.87-48.78-5.66-70.67
			c-12.47,39.45-4.57,89.62,30.13,120.15c-7.71-2.26-15.29-5.52-22.59-9.81c-22.62-13.3-34.59-35.07-34.59-35.07
			c3.85,11.28,12.07,26.63,36.91,40.85c9.31,5.33,19.04,8.79,28.84,10.53c14.1,9.02,29.42,11.17,42.09,9.37
			c-3.79-0.21-7.53-0.74-11.21-1.58C545.54,152.31,540.31,150.44,534.97,147.61z"/>
	</g>
</g>
</svg>
